<svg id="convolutionSVG" viewBox="0 0 200 150" fill="none" width="1200px" height="900px">
<desc>Pixelated image of flowers with a 3x3 kernel on the bottom left.</desc>
<rect id="convolutionBG" fill="#dbd" x="0" y="0" width="200" height="150" />
<path id="convolutionPathShape1" fill="#dac" d="M162 27C161 1 186 5 169 27 197 15 206 31 170 33 205 44 179 59 166 35 168 70 142 57 162 34 135 50 128 36 159 30 125 24 140 5 162 27Z M44 109C43 71 73 77 53 109 86 91 97 114 54 117 96 133 65 154 49 120 52 170 20 152 44 119 12 142 4 121 41 113 0 104 18 77 44 109Z" />
<path id="convolutionPathShape3" fill="#b8a" d="M79 33C102-19 140 8 92 39 148 35 149 73 88 50 135 99 80 108 80 51 52 121 20 76 73 47 16 57 18 24 73 37 23-2 64-27 79 33Z M21 105C34 133 9 140 13 109-6 134-22 120 11 102-28 106-13 79 12 99-8 61 23 65 16 98 33 70 46 82 21 101 56 94 51 121 21 105Z M168 135C128 177 111 123 163 129 117 94 159 73 169 120 181 56 212 92 175 127 217 108 225 155 174 134 212 174 166 191 168 135Z" />
<path id="convolutionPathShape5" fill="#869" d="M118 90C62 60 94 22 126 78 128 16 170 20 138 84 198 38 204 102 140 94 218 134 162 162 134 100 142 166 104 160 122 100 74 150 48 102 118 90Z M31 33C10 9 32-3 37 29 49 0 68 9 42 34 78 22 70 53 41 39 71 71 40 74 37 40 30 73 13 63 32 38 0 54-4 27 31 33Z M76 146C52 171 42 139 73 142 45 121 70 109 76 137 84 99 102 120 80 141 105 130 110 158 79 145 102 169 75 180 76 146Z" />
<path id="convolutionPathShape7" fill="#546" d="M68 103C64 140 33 121 63 101 22 104 37 77 62 95 42 59 73 63 68 95 83 68 107 88 71 99 108 103 91 131 68 103Z M133 17C114 61 86 23 128 13 82-1 109-29 130 5 122-48 156-29 137 8 164-18 184 17 138 14 179 35 148 62 133 17Z" />
<path id="convolutionPathGrid" stroke="#fff" stroke-width="2" d="M8 0V150M16 0V150M24 0V150M32 0V150M40 0V150M48 0V150M56 0V150M64 0V150M72 0V150M80 0V150M88 0V150M96 0V150M104 0V150M112 0V150M120 0V150M128 0V150M136 0V150M144 0V150M152 0V150M160 0V150M168 0V150M176 0V150M184 0V150M192 0V150M200 0V150 M0 8H200M0 16H200M0 24H200M0 32H200M0 40H200M0 48H200M0 56H200M0 64H200M0 72H200M0 80H200M0 88H200M0 96H200M0 104H200M0 112H200M0 120H200M0 128H200M0 136H200M0 144H200" />
<path id="convolutionPathKernel" stroke="#546" stroke-width="2" d="M16 112V136H40V112ZM24 112V136M32 112V136M16 120H40M16 128H40M24 120V128H32V120H24" />
</svg>
